<?xml version="1.0" encoding="UTF-8"?>
<svg id="_图层_2" data-name="图层_2" xmlns="http://www.w3.org/2000/svg"
     viewBox="0 0 723.43 723.43">
    <defs>
        <style>
            .cls-1 {
            fill: #fff;
            }

            .cls-2 {
            fill: url(#_未命名的渐变_20);
            }

            .cls-2, .cls-3 {
            opacity: .65;
            }

            .cls-3 {
            fill: url(#_未命名的渐变_17);
            }

            .cls-4 {
            fill: #07f;
            }

            .cls-5 {
            fill: #6cb6ff;
            }
        </style>
        <radialGradient id="_未命名的渐变_17" cx="-10758.98" cy="-10545.09" fx="-10372.39"
                        fy="-10599.14" r="609.34" gradientTransform="translate(11230.04 11030.97)"
                        gradientUnits="userSpaceOnUse">
            <stop offset=".13" stop-color="#000" stop-opacity=".3"/>
            <stop offset=".17" stop-color="#1f1f1f" stop-opacity=".3"/>
            <stop offset=".25" stop-color="#747474" stop-opacity=".3"/>
            <stop offset=".26" stop-color="gray" stop-opacity=".3"/>
            <stop offset=".28" stop-color="#858585" stop-opacity=".33"/>
            <stop offset=".31" stop-color="#949494" stop-opacity=".41"/>
            <stop offset=".35" stop-color="#acacac" stop-opacity=".55"/>
            <stop offset=".4" stop-color="#cecece" stop-opacity=".73"/>
            <stop offset=".45" stop-color="#f9f9f9" stop-opacity=".97"/>
            <stop offset=".46" stop-color="#fff"/>
            <stop offset=".82" stop-color="#fff"/>
        </radialGradient>
        <radialGradient id="_未命名的渐变_20" cx="-10758.48" cy="-10545.08" fx="-10400.52"
                        fy="-10761.45" r="609.34" gradientTransform="translate(11230.04 11030.97)"
                        gradientUnits="userSpaceOnUse">
            <stop offset=".13" stop-color="#000" stop-opacity=".3"/>
            <stop offset=".16" stop-color="#1f1f1f" stop-opacity=".3"/>
            <stop offset=".22" stop-color="#747474" stop-opacity=".3"/>
            <stop offset=".23" stop-color="gray" stop-opacity=".3"/>
            <stop offset=".25" stop-color="#858585" stop-opacity=".33"/>
            <stop offset=".29" stop-color="#949494" stop-opacity=".41"/>
            <stop offset=".33" stop-color="#acacac" stop-opacity=".55"/>
            <stop offset=".38" stop-color="#cecece" stop-opacity=".73"/>
            <stop offset=".44" stop-color="#f9f9f9" stop-opacity=".97"/>
            <stop offset=".44" stop-color="#fff"/>
            <stop offset=".65" stop-color="#fff"/>
        </radialGradient>
    </defs>
    <g id="_图层_2-2">
        <g>
            <rect class="cls-4" y="0" width="723.43" height="723.43" rx="125.53" ry="125.53"/>
            <path class="cls-5"
                  d="M115.3,455.99c-3.76.92-7.55,1.74-11.36,2.43-5.08.91-10.22,1.57-15.38,1.79-2.3.1-4.6.11-6.9-.03-1.45-.09-2.9-.25-4.32-.55-1.1-.23-2.19-.54-3.23-.99-.77-.33-1.5-.74-2.15-1.27-.77-.62-1.4-1.41-1.99-2.21-.64-.86-1.22-1.74-1.73-2.67-.13-.23-.25-.46-.37-.69-.63-1.25-.55-2.16.26-3.29,3.07-4.27,6.37-8.32,9.95-12.18.09-.1.18-.2.28-.3,1.74-1.85,3.47-3.71,5.21-5.56,18.23-18.98,44.22-39.23,65.35-54.59,29.3-21.08,59.33-40.89,90.24-59.53,34.72-21.05,70.03-40.95,106.03-59.74,37.82-19.84,76.24-38.24,115.41-55.26,31.86-14.03,64.25-26.19,97.48-36.59,13.35-4.14,26.83-7.45,40.57-9.98,7.38-1.41,14.75-2.21,22.27-2.41,1.48-.04,2.79.94,3.17,2.37.14.52.25,1.05.33,1.58.19,1.23.22,2.48.13,3.72-.09,1.32-.33,2.64-.66,3.93-.36,1.41-.83,2.79-1.38,4.14-.69,1.71-1.51,3.36-2.42,4.96-1.38,2.42-2.97,4.7-4.69,6.89-2.23,2.83-4.67,5.49-7.21,8.04-2.72,2.73-5.56,5.33-8.43,7.9-.86.77-1.77,1.23-2.9,1.47-8.93,1.93-17.74,4.23-26.47,6.94-31.76,9.94-62.73,21.57-93.19,34.99-38.29,16.63-75.84,34.61-112.81,54.01-35.24,18.4-69.81,37.87-103.8,58.49-29.94,18.05-59.03,37.24-87.41,57.65-17.1,12.24-33.41,25.31-49.08,39.34-1.97,1.87-3.94,3.75-5.91,5.62-.85.81-1.75,1.3-2.89,1.57Z"/>
            <path class="cls-1"
                  d="M577.61,333.39c0,.95,0,1.89-.02,2.84-1.19,138.01-89.75,255.18-213.07,298.88v-84.37c-1.43.04-2.87.05-4.31.05-51.53,0-98.88-17.93-136.14-47.89,43-17,103.97-44,164.24-83.34-67.23,32.65-131.81,54.97-184.09,65.26-38.01-39.15-61.42-92.56-61.42-151.43,0-120.07,97.34-217.41,217.41-217.41s215.86,95.81,217.38,214.57c.02.95.02,1.89.02,2.84Z"/>
            <path class="cls-3"
                  d="M577.59,336.45c-1.19,138.02-89.75,255.18-213.07,298.89v-84.37c117.14-2.27,211.57-97.19,213.07-214.52Z"/>
            <g>
                <path class="cls-1"
                      d="M578.11,333.39c0,.95,0,1.89-.02,2.84-1.19,138.01-89.75,255.18-213.07,298.88v-84.37c-1.43.04-2.87.05-4.31.05-120.07,0-217.41-97.33-217.41-217.4s97.34-217.41,217.41-217.41,215.86,95.81,217.38,214.57c.02.95.02,1.89.02,2.84Z"/>
                <path class="cls-2"
                      d="M578.09,336.45c-1.19,138.02-89.75,255.18-213.07,298.89v-84.37c117.14-2.27,211.57-97.19,213.07-214.52Z"/>
            </g>
            <path class="cls-4"
                  d="M217.37,497.51c47.29-19.91,101.85-50.68,156.94-89.95-67.57,32.82-132.47,55.2-184.9,65.42,8.6,8.95,17.95,17.16,27.96,24.53"/>
            <path class="cls-1"
                  d="M60.83,492.86c-2.07-3.83-3.27-7.69-3.74-12.01-.58-5.94.16-11.25,2.37-16.8.91,1.26,1.95,2.42,3.11,3.45,1.39,1.23,2.94,2.27,4.59,3.12,1.5.77,3.09,1.38,4.71,1.86,1.71.51,3.45.88,5.22,1.13,2,.29,4.02.42,6.05.47,2.42.06,4.84,0,7.25-.14,5.17-.29,10.32-.93,15.42-1.82,6-1.05,11.94-2.45,17.84-4,2.69-.71,5.37-1.45,8.05-2.2,4.98-1.4,9.95-2.85,14.9-4.37,10.63-3.25,21.18-6.79,31.64-10.55,13.92-5,27.7-10.39,41.38-16.01,26.35-10.83,52.34-22.51,78.04-34.81,17.13-8.2,34.13-16.67,51-25.39,25.18-13.01,50.08-26.58,74.67-40.68,18.48-10.59,36.78-21.49,54.85-32.75,13.3-8.28,26.47-16.76,39.49-25.48,6.37-4.26,12.7-8.58,18.99-12.95,10.92-7.58,21.72-15.33,32.25-23.45,6.38-4.92,12.66-9.97,18.86-15.12,5.12-4.26,10.19-8.58,15.24-12.93,3.07-2.64,6.13-5.3,9.12-8.03,3.77-3.43,7.44-6.99,10.81-10.81,3.1-3.52,5.95-7.28,8.37-11.3,1.31-2.17,2.49-4.41,3.51-6.73.79-1.79,1.48-3.62,2.03-5.49.39-1.3.71-2.62.96-3.96.32-1.71.53-3.44.59-5.17.07-2.01-.06-4.03-.38-6.01,9.64,2.09,17.88,8.27,22.6,16.93,2.07,3.82,3.27,7.69,3.74,12.01,1.11,10.21-2.76,19.09-7,26.19-4.49,7.52-10.65,15.07-18.63,23.38-6.4,6.6-13.06,12.9-20,18.93-.17.15-.34.3-.52.46-14.71,12.68-29.91,24.66-45.68,36-5.88,4.17-11.75,8.35-17.63,12.52-23.74,16.41-47.92,32.07-72.61,47.01-34.72,21.05-70.03,40.95-106.03,59.74-37.82,19.84-76.24,38.24-115.41,55.26-31.86,14.03-64.25,26.19-97.48,36.59-3.81,1.1-7.63,2.2-11.44,3.3-21.05,5.77-38.03,8.94-52.32,9.13-6.88.09-13.67-.54-19.87-2.68-2.92-1-5.91-2.4-8.85-4.49-3.82-2.7-7.31-6.32-10.02-11.35Z"/>
        </g>
    </g>
</svg>